<svg width="17" height="16" viewBox="0 0 17 16" fill="none" xmlns="http://www.w3.org/2000/svg">
<path d="M15.7 6.4H10.1V0.8C10.1 0.587827 10.0157 0.384344 9.86569 0.234315C9.71566 0.0842856 9.51217 0 9.3 0H7.7C7.48783 0 7.28434 0.0842856 7.13432 0.234315C6.98429 0.384344 6.9 0.587827 6.9 0.8V6.4H1.3C1.08783 6.4 0.884344 6.48429 0.734315 6.63432C0.584286 6.78434 0.5 6.98783 0.5 7.2V8.8C0.5 9.01217 0.584286 9.21566 0.734315 9.36569C0.884344 9.51572 1.08783 9.6 1.3 9.6H6.9V15.2C6.9 15.4122 6.98429 15.6157 7.13432 15.7657C7.28434 15.9157 7.48783 16 7.7 16H9.3C9.51217 16 9.71566 15.9157 9.86569 15.7657C10.0157 15.6157 10.1 15.4122 10.1 15.2V9.6H15.7C15.9122 9.6 16.1157 9.51572 16.2657 9.36569C16.4157 9.21566 16.5 9.01217 16.5 8.8V7.2C16.5 6.98783 16.4157 6.78434 16.2657 6.63432C16.1157 6.48429 15.9122 6.4 15.7 6.4Z" fill="#EA7D28"/>
</svg>
